<?xml version="1.0" encoding="UTF-8"?>
<svg width="128" height="128" viewBox="0 0 128 128" xmlns="http://www.w3.org/2000/svg">
  <!-- Background circle -->
  <circle cx="64" cy="64" r="60" fill="#0078d4" stroke="#106ebe" stroke-width="2"/>
  
  <!-- Windows logo style squares -->
  <rect x="32" y="32" width="20" height="20" fill="white" rx="2"/>
  <rect x="56" y="32" width="20" height="20" fill="white" rx="2"/>
  <rect x="32" y="56" width="20" height="20" fill="white" rx="2"/>
  <rect x="56" y="56" width="20" height="20" fill="white" rx="2"/>
  
  <!-- Registry/data analysis elements -->
  <rect x="80" y="40" width="24" height="8" fill="#ffd700" rx="1"/>
  <rect x="80" y="52" width="24" height="8" fill="#ffd700" rx="1"/>
  <rect x="80" y="64" width="24" height="8" fill="#ffd700" rx="1"/>
  <rect x="80" y="76" width="24" height="8" fill="#ffd700" rx="1"/>
  
  <!-- Analysis/scanning lines -->
  <line x1="20" y1="90" x2="108" y2="90" stroke="#ffffff" stroke-width="2" opacity="0.8"/>
  <line x1="20" y1="95" x2="108" y2="95" stroke="#ffffff" stroke-width="2" opacity="0.6"/>
  <line x1="20" y1="100" x2="108" y2="100" stroke="#ffffff" stroke-width="2" opacity="0.4"/>
  
  <!-- Magnifying glass for analysis -->
  <circle cx="100" cy="28" r="8" fill="none" stroke="#ffffff" stroke-width="2"/>
  <line x1="105" y1="33" x2="110" y2="38" stroke="#ffffff" stroke-width="2"/>
  
  <!-- Data flow arrows -->
  <path d="M 45 85 L 55 85 L 55 95 L 65 95" stroke="#ffffff" stroke-width="2" fill="none" marker-end="url(#arrowhead)"/>
  <path d="M 65 95 L 75 95 L 75 105 L 85 105" stroke="#ffffff" stroke-width="2" fill="none" marker-end="url(#arrowhead)"/>
  
  <!-- Arrow marker definition -->
  <defs>
    <marker id="arrowhead" markerWidth="10" markerHeight="7" refX="9" refY="3.5" orient="auto">
      <polygon points="0 0, 10 3.5, 0 7" fill="#ffffff"/>
    </marker>
  </defs>
</svg> 